<svg width="225" height="38" viewBox="0 0 225 38" fill="none" xmlns="http://www.w3.org/2000/svg">
<g opacity="0.3">
<g style="mix-blend-mode:overlay">
<path d="M149.308 45.5L170.308 0.5H180.308L159.308 46.5L149.308 45.5Z" fill="black"/>
</g>
<g style="mix-blend-mode:overlay">
<path d="M165 45.5L186 0.5H196L175 46.5L165 45.5Z" fill="black"/>
</g>
<g style="mix-blend-mode:overlay">
<path d="M181 45.5L202 0.5H212L191 46.5L181 45.5Z" fill="black"/>
</g>
<g style="mix-blend-mode:overlay">
<path d="M197 45.5L218 0.5H228L207 46.5L197 45.5Z" fill="black"/>
</g>
<g style="mix-blend-mode:overlay">
<path d="M133.308 45.5L154.308 0.5H164.308L143.308 46.5L133.308 45.5Z" fill="black"/>
</g>
<g style="mix-blend-mode:overlay">
<path d="M117.308 45.5L138.308 0.5H148.308L127.308 46.5L117.308 45.5Z" fill="black"/>
</g>
<g style="mix-blend-mode:overlay">
<path d="M101.308 45.5L122.308 0.5H132.308L111.308 46.5L101.308 45.5Z" fill="black"/>
</g>
<g style="mix-blend-mode:overlay">
<path d="M85.3081 45.5L106.308 0.5H116.308L95.3081 46.5L85.3081 45.5Z" fill="black"/>
</g>
<g style="mix-blend-mode:overlay">
<path d="M69.3081 45.5L90.3081 0.5H100.308L79.3081 46.5L69.3081 45.5Z" fill="black"/>
</g>
<g style="mix-blend-mode:overlay">
<path d="M53.3081 45.5L74.3081 0.5H84.3081L63.3081 46.5L53.3081 45.5Z" fill="black"/>
</g>
<g style="mix-blend-mode:overlay">
<path d="M37.3081 45.5L58.3081 0.5H68.3081L47.3081 46.5L37.3081 45.5Z" fill="black"/>
</g>
<g style="mix-blend-mode:overlay">
<path d="M21.3081 45.5L42.3081 0.5H52.3081L31.3081 46.5L21.3081 45.5Z" fill="black"/>
</g>
<g style="mix-blend-mode:overlay">
<path d="M5.30811 45.5L26.3081 0.5H36.3081L15.3081 46.5L5.30811 45.5Z" fill="black"/>
</g>
<g style="mix-blend-mode:overlay">
<path d="M-10.6919 45.5L10.3081 0.5H20.3081L-0.691895 46.5L-10.6919 45.5Z" fill="black"/>
</g>
</g>
</svg>
