<svg width="37" height="40" viewBox="0 0 37 40" fill="none" xmlns="http://www.w3.org/2000/svg">
<path fill-rule="evenodd" clip-rule="evenodd" d="M33.4393 33.2463C33.4393 33.2463 28.6343 37.1826 19.0725 35.5536C11.8181 34.3178 7.94903 26.1496 7.94903 21.7591C7.94903 11.3494 15.4919 8.98048 20.5914 8.98048C25.6908 8.98048 29.0174 14.0587 29.0174 17.9906C29.0174 21.9224 26.2949 25.3614 22.0581 25.3614C17.8212 25.3614 16.5664 22.3232 16.5664 19.53C16.5664 16.7368 18.7789 15.7527 20.7966 15.7527C22.8144 15.7527 23.5054 17.5123 23.5054 19.0246C23.5054 20.537 22.3566 21.0785 21.3984 21.0785C20.4402 21.0785 20.3454 20.5848 19.9787 20.0659C19.612 19.547 20.4464 17.5829 19.0725 17.5829C17.6986 17.5829 17.4425 19.8409 17.4425 19.8409C17.4425 19.8409 17.9434 24.1994 22.0581 24.1242C26.1727 24.0489 28.1247 20.7998 27.5574 17.5829C26.9901 14.366 23.9337 10.9477 18.5694 11.6384C13.2052 12.3292 11.015 17.8654 11.9804 23.7817C12.9458 29.698 19.8848 33.126 25.3407 31.8927C30.7966 30.6594 36.2306 26.625 36.2306 16.396C36.2306 6.16698 27.5574 0.0184264 17.2154 1.03174C6.87347 2.04506 0.453642 11.2804 0.864568 22.3769C1.27549 33.4735 11.5839 39.5169 20.3007 39.8284C29.0174 40.1399 34.3612 34.9859 34.3612 34.9859C34.3612 34.9859 35.563 33.8912 35.0918 33.0364C34.6206 32.1816 33.4393 33.2463 33.4393 33.2463Z" fill="#CC00FF"/>
</svg>
