<svg width="30" height="40" viewBox="0 0 30 40" fill="none" xmlns="http://www.w3.org/2000/svg">
<path fill-rule="evenodd" clip-rule="evenodd" d="M13.3897 32.309C14.5973 31.4076 16.1228 31.0435 17.6074 31.3023L29.0673 33.3004C29.3128 33.3432 29.4919 33.5563 29.4919 33.8055C29.4919 34.0283 29.3481 34.2256 29.1359 34.2937L14.1416 39.1082C12.9232 39.4994 11.5903 39.0833 10.8108 38.0683C9.78121 36.7277 10.0471 34.8039 11.4017 33.7928L13.3897 32.309ZM11.1961 0.891601C8.01251 0.891601 5.19292 2.94661 4.2182 5.97732C3.52728 8.12562 3.86443 10.4724 5.1322 12.3393L13.909 25.2641C15.2374 27.2203 17.3216 28.5337 19.6596 28.8879C24.7955 29.6661 29.4194 25.69 29.4194 20.4955L29.4194 18.3662C29.4194 15.3236 28.0767 12.436 25.7501 10.4753L16.5538 2.72522C15.1487 1.54105 13.3702 0.891601 11.5327 0.891601L11.1961 0.891601ZM2.43669 12.9065L0.845378 17.8452C-0.0320405 20.5684 0.422101 23.5456 2.07149 25.8833L5.12937 30.2173C6.30002 31.8765 8.58567 32.2888 10.2623 31.1434C11.9488 29.9912 12.3894 27.6941 11.249 25.9997L2.43669 12.9065Z" fill="#00FF0A"/>
</svg>
