<svg width="35" height="46" viewBox="0 0 35 46" fill="none" xmlns="http://www.w3.org/2000/svg">
<path fill-rule="evenodd" clip-rule="evenodd" d="M25.9483 35.5772C26.5026 33.5454 25.4267 29.3683 25.4267 29.3683C25.4267 29.3683 24.6464 32.7712 23.427 34.0289C22.386 35.1026 21.1103 35.847 19.28 36.0417C20.7741 35.314 21.8016 33.7969 21.8016 32.0433C21.8016 29.5815 19.7766 27.5859 17.2786 27.5859C14.7806 27.5859 12.7555 29.5815 12.7555 32.0433C12.7555 32.7127 12.9052 33.3476 13.1735 33.9173C11.6189 32.669 11.3741 30.6758 11.3741 30.6758C11.3741 30.6758 9.62952 37.9374 14.4367 41.3533C19.2439 44.7692 28.661 41.8331 28.661 41.8331C28.661 41.8331 15.1846 51.3394 5.19842 40.993C-3.4039 32.0804 2.95317 20.3466 2.95317 20.3466C2.95317 20.3466 2.67863 21.4351 2.67863 22.6987C2.67863 23.9623 3.36199 24.9237 3.36199 24.9237C3.36199 24.9237 5.40043 20.6162 6.98688 18.8644C8.48829 17.2065 10.3704 15.8619 11.996 14.7005C13.2474 13.8064 14.3468 13.021 15.0035 12.2848C18.6201 8.23066 16.4025 0.84613 16.4025 0.84613C16.4025 0.84613 20.4794 4.44929 21.6176 9.10282C22.0514 10.8767 21.7723 12.8949 21.5228 14.6998C21.1176 17.6297 20.7902 19.9972 23.717 19.8436C28.4468 19.5953 24.3368 12.2848 24.3368 12.2848C24.3368 12.2848 35.0658 17.9381 34.2643 27.8255C33.4627 37.7129 22.5369 39.9606 22.5369 39.9606C22.5369 39.9606 25.394 37.609 25.9483 35.5772Z" fill="#FF3D00"/>
</svg>
