<svg width="522" height="138" viewBox="0 0 522 138" fill="none" xmlns="http://www.w3.org/2000/svg">
<path d="M219.572 16.9725L62.7086 21.8151C59.4179 21.9167 56.3223 23.6169 54.4253 26.3644L21.9084 73.4617C20.526 75.464 19.8917 77.8644 20.1205 80.2276L21.6234 95.7485C21.9745 99.3742 20.2914 102.98 17.2385 105.142L11.2361 109.393C8.98352 110.988 7.4416 113.398 6.96269 116.073L6.10312 120.873C5.00498 127.006 9.69688 132.421 15.9218 132.205L122.244 128.521L237.706 121.146L300.271 111.688C302.307 111.38 304.364 111.696 306.166 112.595L321.017 120.001C322.523 120.751 324.212 121.098 325.925 121.008L455.792 114.166C458.562 114.02 461.193 112.743 463.062 110.636L507.964 60.0381C508.468 59.4703 508.909 58.8508 509.278 58.191L514.926 48.1034C517.28 43.8997 516.402 38.7466 512.825 35.7694L504.897 29.1698L491.21 18.6888C490.149 17.8759 488.922 17.2941 487.607 16.9793L442.37 6.15364C441.236 5.88219 440.054 5.81374 438.879 5.95143L400.404 10.4617L349.343 11.4658L310.237 14.6975L265.716 21.7606C264.81 21.9044 263.893 21.9251 262.991 21.8221L221.017 17.032C220.539 16.9775 220.056 16.9576 219.572 16.9725Z" fill="#FFD600" stroke="white" stroke-width="10"/>
</svg>
