<svg width="486" height="170" viewBox="0 0 486 170" fill="none" xmlns="http://www.w3.org/2000/svg">
<path d="M203.664 19.7874L59.4298 25.8344C55.8197 25.9858 52.572 28.0728 50.9345 31.2938L19.8827 92.3732C19.0596 93.9922 18.693 95.8047 18.8222 97.6162L20.5433 121.755C20.7543 124.716 19.6396 127.617 17.5006 129.674L9.96759 136.919C8.33339 138.491 7.28184 140.571 6.98545 142.819L5.56355 153.603C4.7489 159.782 9.72271 165.192 15.9478 164.9L113.686 160.3L220.791 151.009L277.601 139.346C280.241 138.804 282.988 139.351 285.219 140.862L297.335 149.067C299.193 150.325 301.419 150.922 303.656 150.762L422.174 142.282C425.29 142.059 428.123 140.393 429.832 137.778L471.677 73.7393C472.02 73.215 472.312 72.6596 472.551 72.0806L479.32 55.6623C480.775 52.1334 480.094 48.0841 477.565 45.2252L468.643 35.1404L456.191 22.1895C455.051 21.0043 453.637 20.1185 452.073 19.6103L411.339 6.37174C409.835 5.88307 408.237 5.75787 406.676 6.00645L371.714 11.5724L324.348 12.8374L288.072 16.9086L247.316 25.6897C246.12 25.9473 244.887 25.9834 243.678 25.796L205.614 19.8966C204.969 19.7967 204.316 19.7601 203.664 19.7874Z" fill="#FFD600" stroke="white" stroke-width="10"/>
</svg>
