<svg width="628" height="169" viewBox="0 0 628 169" fill="none" xmlns="http://www.w3.org/2000/svg">
<path d="M376.535 153.718L573.317 143.12C576.616 142.942 579.614 141.147 581.328 138.322L618.249 77.4819C620.31 74.0852 620.165 69.7903 617.879 66.5405L608.551 53.2805C605.484 48.9192 606.377 42.918 610.583 39.6399L617.13 34.5365C619.246 32.8871 620.611 30.4567 620.917 27.7914L622.144 17.1221C622.852 10.9551 617.83 5.63894 611.633 5.99676L475.605 13.8507L345.052 20.8765L266.615 34.8615C264.571 35.226 262.463 34.9449 260.586 34.0572L240.143 24.3925C238.574 23.6506 236.839 23.33 235.109 23.462L71.1652 35.9682C68.3874 36.1801 65.8239 37.5411 64.0923 39.7234L10.9063 106.752C10.3738 107.423 9.92977 108.159 9.58506 108.944L6.53848 115.875C4.96757 119.449 5.62032 123.611 8.21015 126.532L14.9604 134.147C15.4418 134.69 15.9809 135.179 16.5682 135.606L34.0624 148.308C35.1786 149.118 36.4505 149.689 37.798 149.984L96.237 162.785C97.4047 163.04 98.6089 163.085 99.7923 162.916L148.092 156.009L212.017 153.301L260.786 148.074L315.428 137.906C316.951 137.623 318.518 137.697 320.007 138.122L373.248 153.347C374.315 153.652 375.426 153.778 376.535 153.718Z" fill="#FFD600" stroke="white" stroke-width="10"/>
</svg>
