<svg width="845" height="176" viewBox="0 0 845 176" fill="none" xmlns="http://www.w3.org/2000/svg">
<path d="M373.063 18.7814L15.0404 53.4079C8.20107 54.0694 4.04217 61.2709 6.89113 67.5192L22.8383 102.494C23.3651 103.649 24.1073 104.693 25.0253 105.571L41.2241 121.047C46.0754 125.682 45.066 133.691 39.2149 136.99L30.8474 141.708C28.1155 143.249 26.2623 145.98 25.8414 149.087L24.5098 158.916C23.6696 165.117 28.6655 170.551 34.9148 170.233L234.321 160.096L420.971 151.121L535.088 135.659C536.553 135.461 538.042 135.589 539.45 136.035L572.692 146.568C573.872 146.942 575.112 147.094 576.348 147.015L811.748 131.989C815.955 131.72 819.545 128.843 820.724 124.794L838.919 62.3173C839.379 60.7347 839.442 59.0632 839.101 57.4515L836.888 46.9875C836.745 46.3105 836.532 45.6503 836.252 45.0175L832.321 36.1203C831.371 33.9693 829.692 32.2232 827.58 31.189L801.705 18.5188L772.874 6.18027C771.29 5.50216 769.556 5.24547 767.842 5.43515L698.974 13.056L607.559 16.7185L537.911 22.6738L458.326 33.8933C457.247 34.0454 456.151 34.0202 455.08 33.8187L375.876 18.9075C374.949 18.7331 374.002 18.6906 373.063 18.7814Z" fill="#FFD600" stroke="white" stroke-width="10"/>
</svg>
