<svg width="18" height="28" viewBox="0 0 18 28" fill="none" xmlns="http://www.w3.org/2000/svg">
<path d="M9.30236 28.0004H8.67169C3.89242 28.0004 0 24.108 0 19.3287V8.67169C0 3.89242 3.89242 0 8.67169 0H9.30236C14.0816 0 17.9741 3.89242 17.9741 8.67169V19.3243C17.9741 24.111 14.0816 28.0004 9.30236 28.0004ZM8.67169 1.57667C4.76205 1.57667 1.57667 4.76205 1.57667 8.67169V19.3243C1.57667 23.234 4.76205 26.4193 8.67169 26.4193H9.30236C13.212 26.4193 16.3974 23.234 16.3974 19.3243V8.67169C16.3974 4.76205 13.212 1.57667 9.30236 1.57667H8.67169Z" fill="white"/>
<path d="M8.98682 12.3744C8.55077 12.3744 8.19849 12.0221 8.19849 11.586V6.90528C8.19849 6.46923 8.55077 6.11694 8.98682 6.11694C9.42287 6.11694 9.77516 6.46923 9.77516 6.90528V11.586C9.77516 12.0196 9.42287 12.3744 8.98682 12.3744Z" fill="white"/>
</svg>
