<svg width="661" height="162" viewBox="0 0 661 162" fill="none" xmlns="http://www.w3.org/2000/svg">
<path d="M287.322 12.5204L83.7524 13.8773C80.4339 13.8994 77.2435 15.5406 75.2276 18.2628L28.9129 80.8025C27.4746 82.7448 26.748 85.0867 26.8615 87.4151L27.9972 110.723C28.1719 114.309 26.3567 117.822 23.2544 119.902L12.63 127.025C10.3357 128.563 8.71035 130.913 8.11951 133.546L5.6278 144.648C4.26127 150.737 8.71986 156.249 14.9585 156.184L155.241 154.712L304.095 148.759L385.934 138.312C388.017 138.046 390.094 138.423 391.877 139.391L411.855 150.232C413.345 151.041 415.046 151.44 416.79 151.39L587.02 146.503C589.228 146.44 591.397 145.66 593.191 144.285L640.152 108.291C642.016 106.861 643.367 104.873 643.979 102.656L655.586 60.6326C656.564 57.0894 655.541 53.414 652.915 51.0411L639.798 39.1891L622.04 24.439C621.252 23.7846 620.357 23.2638 619.388 22.8957L574.096 5.69588C572.699 5.16523 571.179 4.96382 569.65 5.10692L519.951 9.76126L454.259 9.45419L403.799 12.4262L345.776 20.2664C344.848 20.3918 343.914 20.3902 343.001 20.2615L288.79 12.618C288.306 12.5497 287.815 12.5171 287.322 12.5204Z" fill="#FFD600" stroke="white" stroke-width="10"/>
</svg>
