<svg width="239" height="33" viewBox="0 0 239 33" fill="none" xmlns="http://www.w3.org/2000/svg">
<path fill-rule="evenodd" clip-rule="evenodd" d="M24.8347 18.6234C24.5722 19.8765 23.4056 23.0932 19.6847 24.8349L18.1907 23.1697L15.6693 25.6815C14.2348 25.6625 12.824 25.3149 11.5474 24.666C10.2708 24.0171 9.16293 23.0843 8.31034 21.9408C8.57812 22.0236 8.85469 22.0752 9.13449 22.0946C9.5475 22.1021 9.99441 21.952 9.99441 21.2648V14.4865C10.0001 14.3123 9.96483 14.1391 9.89108 13.9808C9.81743 13.8225 9.7074 13.6834 9.56986 13.5748C9.43232 13.4661 9.27105 13.3908 9.09893 13.3549C8.9268 13.3189 8.74858 13.3232 8.57847 13.3676C7.41093 13.6343 6.47859 16.5209 6.47859 16.5209C6.46549 15.1881 6.74545 13.8686 7.29898 12.654C7.85252 11.4392 8.66636 10.3586 9.68392 9.48712C11.0232 8.33903 12.6627 7.5895 14.4134 7.32495C13.1386 8.04474 12.4227 9.2186 12.4227 10.2032C12.4227 11.7882 13.3859 11.5961 13.671 11.3631V20.5115C13.7196 20.6262 13.7829 20.7344 13.8592 20.8332C13.9865 21.0077 14.1542 21.1496 14.3481 21.2469C14.5421 21.3443 14.7567 21.3941 14.9741 21.3925C15.9384 21.3925 17.1896 20.3017 17.1896 20.3017V12.8968C17.1896 12.1434 16.6167 11.2335 16.0428 10.9211C16.0428 10.9211 17.105 10.7346 17.9244 11.3565C18.0784 11.1702 18.242 10.9918 18.4147 10.8223C20.3273 8.96219 22.1289 8.43261 23.6295 8.16782C23.6295 8.16782 20.9012 10.2927 20.9012 13.1439C20.9012 15.264 20.9567 20.4351 20.9567 20.4351C21.969 21.4038 23.4743 20.0042 24.8347 18.6234Z" fill="black"/>
<path fill-rule="evenodd" clip-rule="evenodd" d="M31.3141 16.5027C31.3141 25.1498 24.3042 32.1598 15.6571 32.1598C7.00989 32.1598 0 25.1498 0 16.5027C0 7.85559 7.00989 0.845703 15.6571 0.845703C24.3042 0.845703 31.3141 7.85559 31.3141 16.5027ZM15.6571 31.08C23.7078 31.08 30.2343 24.5535 30.2343 16.5027C30.2343 8.45195 23.7078 1.9255 15.6571 1.9255C7.60625 1.9255 1.07979 8.45195 1.07979 16.5027C1.07979 24.5535 7.60625 31.08 15.6571 31.08Z" fill="black"/>
<path fill-rule="evenodd" clip-rule="evenodd" d="M162.021 22.8167H148.703V10.5972H161.81V13.2987H152.27V15.3784H161.305V17.9298H152.27V20.0348H162.019V22.8167H162.021Z" fill="black"/>
<path fill-rule="evenodd" clip-rule="evenodd" d="M238.638 22.8142H225.53V10.7866H238.432V13.445H229.042V15.492H237.936V18.0047H229.042V20.0769H238.638V22.8142Z" fill="black"/>
<path fill-rule="evenodd" clip-rule="evenodd" d="M180.075 22.8145H174.687L167.594 13.6744H167.524V22.8145H163.989V10.595H169.464L176.471 19.744H176.54V10.595H180.073V22.8145H180.075Z" fill="black"/>
<path fill-rule="evenodd" clip-rule="evenodd" d="M222.776 22.8145H217.387L210.294 13.6744H210.224V22.8145H206.69V10.595H212.164L219.171 19.744H219.24V10.595H222.773V22.8145H222.776Z" fill="black"/>
<path fill-rule="evenodd" clip-rule="evenodd" d="M190.489 22.9743C189.358 22.9743 188.382 22.946 187.56 22.891C186.74 22.836 186.042 22.7304 185.468 22.5727C184.893 22.4165 184.427 22.1977 184.068 21.9196C183.71 21.6414 183.431 21.2784 183.232 20.8321C183.034 20.3859 182.9 19.8443 182.832 19.2091C182.763 18.5738 182.727 17.8211 182.727 16.9508V16.5938C182.727 15.7176 182.763 14.9589 182.836 14.3177C182.908 13.6765 183.045 13.1321 183.246 12.6857C183.446 12.2394 183.726 11.8779 184.085 11.6013C184.443 11.3261 184.91 11.1118 185.484 10.9571C186.058 10.8039 186.756 10.6998 187.578 10.6477C188.398 10.5956 189.368 10.5688 190.489 10.5688H191.032C191.974 10.5688 192.797 10.5897 193.503 10.6298C194.209 10.67 194.816 10.7444 195.325 10.8515C195.832 10.9586 196.252 11.1059 196.582 11.2918C196.913 11.4778 197.174 11.7143 197.366 12.0015C197.558 12.2886 197.692 12.6322 197.767 13.0323C197.84 13.4326 197.878 13.8997 197.878 14.4338V14.9038H194.416V14.755C194.416 14.4769 194.373 14.2433 194.287 14.0544C194.2 13.8655 194.031 13.7152 193.779 13.6021C193.526 13.4891 193.172 13.4088 192.718 13.3626C192.262 13.3165 191.66 13.2927 190.915 13.2927H190.615C189.938 13.2927 189.36 13.3047 188.882 13.3269C188.403 13.3508 188.004 13.4013 187.686 13.4787C187.367 13.5575 187.114 13.6691 186.929 13.8134C186.743 13.9592 186.603 14.1555 186.512 14.4055C186.42 14.6554 186.362 14.9648 186.335 15.3323C186.31 15.7013 186.296 16.143 186.296 16.6593V16.8765C186.296 17.3808 186.31 17.8137 186.335 18.1737C186.361 18.5337 186.42 18.8372 186.512 19.0826C186.605 19.3296 186.743 19.526 186.929 19.6703C187.114 19.8145 187.367 19.9262 187.686 20.005C188.004 20.0838 188.403 20.1344 188.882 20.1567C189.36 20.1806 189.938 20.1909 190.615 20.1909H190.915C191.466 20.1909 191.94 20.1806 192.34 20.1597C192.738 20.1389 193.073 20.1076 193.346 20.0645C193.618 20.0213 193.837 19.9604 194.001 19.8815C194.164 19.8027 194.29 19.7045 194.378 19.5855C194.468 19.4665 194.526 19.3266 194.555 19.1674C194.585 19.0082 194.599 18.8208 194.599 18.6052V18.2659H189.923V15.9169H198.019V18.6319C198.019 19.2181 197.98 19.7328 197.903 20.176C197.826 20.6194 197.687 21.0032 197.489 21.3245C197.292 21.6474 197.025 21.9137 196.689 22.1249C196.353 22.3376 195.928 22.5057 195.409 22.6306C194.893 22.7557 194.275 22.8435 193.554 22.8955C192.834 22.9476 191.994 22.9743 191.036 22.9743H190.489Z" fill="black"/>
<path fill-rule="evenodd" clip-rule="evenodd" d="M204.085 22.839H200.503V10.7147H204.085V22.839Z" fill="black"/>
<path fill-rule="evenodd" clip-rule="evenodd" d="M48.3634 22.9668C47.3712 22.9668 46.5009 22.9401 45.7526 22.888C45.0043 22.8359 44.3587 22.7436 43.8156 22.6157C43.2727 22.4863 42.8234 22.3123 42.4664 22.0921C42.1094 21.8719 41.8253 21.5967 41.6139 21.265C41.4027 20.9332 41.2524 20.539 41.1662 20.0823C41.0785 19.6241 41.0353 19.0915 41.0353 18.4816V10.5732H44.6383V17.3108C44.6383 17.7274 44.6532 18.0843 44.6815 18.3834C44.7097 18.6824 44.7693 18.9368 44.86 19.148C44.9493 19.3592 45.0787 19.5289 45.2468 19.6582C45.4149 19.7877 45.638 19.8889 45.9177 19.9618C46.1959 20.0347 46.5381 20.0838 46.9442 20.1075C47.3504 20.1314 47.8353 20.1433 48.3976 20.1433H48.7026C49.2649 20.1433 49.7499 20.1299 50.156 20.1031C50.5622 20.0763 50.9043 20.0287 51.1825 19.9573C51.4607 19.8874 51.6839 19.7862 51.8519 19.6538C52.02 19.5214 52.1495 19.3518 52.2387 19.1436C52.328 18.9353 52.3875 18.6809 52.4173 18.3789C52.4455 18.0769 52.4604 17.7214 52.4604 17.3108V10.5732H56.0634V18.4801C56.0634 19.0841 56.0233 19.6167 55.9415 20.0763C55.8597 20.5375 55.7154 20.9332 55.5071 21.2635C55.2988 21.5952 55.0161 21.8704 54.6621 22.0906C54.308 22.3108 53.8602 22.4848 53.3173 22.6143C52.7743 22.7436 52.1256 22.8345 51.3729 22.8865C50.6187 22.9401 49.7395 22.9653 48.7353 22.9653H48.3634V22.9668Z" fill="black"/>
<path fill-rule="evenodd" clip-rule="evenodd" d="M74.5903 22.8167H69.2036L62.1104 13.6514H62.0405V22.8167H58.5073V10.5645H63.9819L70.9887 19.7387H71.0587V10.5645H74.5917V22.8167H74.5903Z" fill="black"/>
<path fill-rule="evenodd" clip-rule="evenodd" d="M85.211 16.7486C85.8313 16.7486 86.3267 16.7292 86.6956 16.6921C87.0645 16.6534 87.3442 16.5746 87.5347 16.4541C87.7266 16.3336 87.8515 16.167 87.9095 15.9527C87.9676 15.7385 87.9973 15.4558 87.9973 15.1033V14.8921C87.9973 14.5454 87.9676 14.2657 87.9095 14.0515C87.8515 13.8373 87.7251 13.6736 87.5302 13.5591C87.3352 13.4445 87.0542 13.3687 86.6867 13.33C86.3178 13.2913 85.8268 13.2734 85.211 13.2734H80.7198V16.7486H85.211ZM91.6257 22.8167H88.0657V21.8229C88.0657 21.466 88.0508 21.158 88.0225 20.8992C87.9928 20.6418 87.9333 20.4231 87.8396 20.2446C87.7474 20.066 87.6164 19.9217 87.4483 19.8131C87.2803 19.7046 87.0586 19.6212 86.7819 19.5617C86.5067 19.5038 86.1675 19.4636 85.7644 19.4427C85.3612 19.4219 84.8807 19.4114 84.3243 19.4114H80.7212V22.8153H77.1523V10.5645H86.6569C87.6551 10.5645 88.4763 10.6255 89.1205 10.7489C89.7646 10.8724 90.2719 11.0792 90.6439 11.3693C91.0157 11.6594 91.2716 12.0431 91.4144 12.5222C91.5573 12.9997 91.6271 13.5904 91.6271 14.294V14.7254C91.6271 15.206 91.59 15.627 91.5141 15.987C91.4383 16.347 91.3162 16.6578 91.1481 16.9197C90.98 17.18 90.7628 17.3958 90.4951 17.5668C90.2288 17.7363 89.9 17.8658 89.5117 17.9536V18.0235C89.9401 18.0934 90.2927 18.1841 90.5695 18.2913C90.8447 18.3999 91.0603 18.5606 91.2181 18.7748C91.3742 18.989 91.4813 19.2687 91.5394 19.6153C91.5974 19.9619 91.6257 20.4038 91.6257 20.9438V22.8167Z" fill="black"/>
<path fill-rule="evenodd" clip-rule="evenodd" d="M107.281 22.8167H93.9651V10.5645H107.073V13.2734H97.534V15.3577H106.568V17.9163H97.534V20.0273H107.281V22.8167Z" fill="black"/>
<path fill-rule="evenodd" clip-rule="evenodd" d="M119.322 18.0665L116.825 13.1499H116.737L114.257 18.0665H119.322ZM125.634 22.8255H121.743L120.62 20.6268H112.978L111.873 22.8255H108.017L114.596 10.5732H119.018L125.634 22.8255Z" fill="black"/>
<path fill-rule="evenodd" clip-rule="evenodd" d="M119.322 18.0665L116.825 13.1499H116.737L114.257 18.0665H119.322ZM125.634 22.8255H121.743L120.62 20.6268H112.978L111.873 22.8255H108.017L114.596 10.5732H119.018L125.634 22.8255Z" fill="black"/>
<path fill-rule="evenodd" clip-rule="evenodd" d="M138.753 22.827H126.95V10.5732H130.553V19.9766H138.751V22.827H138.753Z" fill="black"/>
</svg>
