<svg width="83" height="26" viewBox="0 0 83 26" fill="none" xmlns="http://www.w3.org/2000/svg">
<path d="M42.402 20.4927H39.923L35.6495 14.5912L31.3575 20.4927H28.8785L34.3915 12.9077L29.341 5.9147H31.82L35.668 11.2057L39.516 5.9147H41.995L36.9075 12.9077L42.402 20.4927ZM55.278 16.3487C55.278 17.6252 54.8525 18.6427 54.0015 19.3827C53.1505 20.1042 51.948 20.5112 50.3755 20.5112H43.5675V13.9992H40.293L41.662 12.1307H43.5675V5.9332H50.098C51.578 5.9332 52.7065 6.3032 53.4835 6.9877C54.279 7.6907 54.6675 8.6157 54.6675 9.7442C54.6675 11.1317 54.0385 12.2232 52.762 12.9262C53.576 13.2222 54.1865 13.7217 54.612 14.2952C55.0745 14.8502 55.278 15.5717 55.278 16.3487ZM45.7875 12.1492H49.9685C50.8195 12.1492 51.4485 11.9642 51.874 11.5757C52.2995 11.2057 52.503 10.6322 52.503 9.8737C52.503 9.2447 52.2995 8.7267 51.837 8.3567C51.4115 7.9867 50.7825 7.8202 49.9685 7.8202H45.7875V12.1492ZM53.0395 16.2932C53.0395 15.5347 52.799 14.9242 52.3365 14.5727C51.874 14.1842 51.1895 13.9992 50.283 13.9992H45.769V18.5687H50.246C51.1155 18.5687 51.8185 18.3652 52.2995 17.9952C52.799 17.5882 53.0395 17.0147 53.0395 16.2932ZM70.2815 13.2037C70.2815 14.3322 70.1335 15.3867 69.8005 16.2932C69.4675 17.1997 68.9865 18.0137 68.3575 18.7167C67.6915 19.4197 66.933 19.9562 66.082 20.2892C65.231 20.6592 64.269 20.8072 63.1775 20.8072C62.123 20.8072 61.124 20.6222 60.273 20.2892C59.422 19.9192 58.6635 19.4197 57.9975 18.7167C57.3315 18.0137 56.8505 17.1997 56.5175 16.2932C56.1845 15.3867 56.0365 14.3322 56.0365 13.2037C56.0365 12.0752 56.1845 11.0207 56.5175 10.1142C56.8505 9.2077 57.3315 8.3567 57.9975 7.6722C58.6265 6.9692 59.385 6.4697 60.273 6.0997C61.124 5.7667 62.123 5.5817 63.1775 5.5817C64.232 5.5817 65.2125 5.7667 66.082 6.0997C66.933 6.4327 67.71 6.9692 68.3575 7.6722C68.9865 8.3752 69.5045 9.2077 69.8005 10.1142C70.115 11.0392 70.2815 12.0567 70.2815 13.2037ZM58.3305 13.2037C58.3305 14.9242 58.793 16.2932 59.6625 17.2922C60.532 18.2912 61.6975 18.8092 63.1775 18.8092C64.6205 18.8092 65.8045 18.2912 66.6925 17.2922C67.562 16.2932 67.9875 14.9242 67.9875 13.2037C67.9875 11.4832 67.562 10.0957 66.6925 9.0967C65.823 8.0977 64.639 7.5797 63.1775 7.5797C61.7345 7.5797 60.5505 8.0977 59.6625 9.0967C58.793 10.1327 58.3305 11.4832 58.3305 13.2037ZM77.3115 12.9077L82.399 5.9147H79.92L76.072 11.2057L72.224 5.9147H69.745L74.8325 12.9077L69.3195 20.4927H71.7985L76.072 14.5912L80.364 20.4927H82.843L77.3115 12.9077ZM12.173 10.6137C15.8545 13.4072 22.0705 20.2522 20.1835 22.1947C18.019 24.0817 15.244 25.1917 12.173 25.1917C9.102 25.1917 6.29 24.0632 4.1625 22.1947C2.257 20.2522 8.51 13.4072 12.1545 10.6507C12.136 10.6137 12.173 10.6137 12.173 10.6137ZM12.173 0.845703C9.7125 0.845703 7.6775 1.5117 5.8275 2.6402C5.7905 2.6402 5.7905 2.6772 5.7905 2.6957C5.7905 2.7142 5.8275 2.7327 5.846 2.7327C8.214 2.2147 11.803 4.2497 12.136 4.4532H12.173H12.21C12.543 4.2497 16.132 2.2147 18.5 2.7327C18.537 2.7327 18.5555 2.7327 18.5555 2.6957C18.5555 2.6587 18.5555 2.6402 18.5185 2.6402C16.6685 1.5117 14.6335 0.845703 12.173 0.845703ZM3.6445 4.3422C3.6075 4.3422 3.6075 4.3792 3.589 4.3792C1.369 6.5992 0 9.6517 0 13.0187C0 15.7752 0.9435 18.3467 2.4975 20.3817C2.4975 20.4187 2.5345 20.4187 2.553 20.4187C2.59 20.4187 2.59 20.3817 2.553 20.3632C1.6095 17.4772 6.3825 10.5397 8.843 7.6352L8.88 7.5982C8.88 7.5612 8.88 7.5612 8.843 7.5612C5.0875 3.8612 3.848 4.2497 3.6445 4.3422ZM15.503 7.5242L15.466 7.5612C15.466 7.5612 15.466 7.5982 15.503 7.5982C17.9635 10.5027 22.6995 17.4587 21.793 20.3262V20.3817C21.83 20.3817 21.8485 20.3817 21.8485 20.3447C23.4025 18.3097 24.346 15.7382 24.346 12.9817C24.346 9.6147 22.977 6.5622 20.7385 4.3422C20.7015 4.3052 20.7015 4.3052 20.683 4.3052C20.4795 4.2497 19.24 3.8612 15.503 7.5242Z" fill="black"/>
</svg>
